<svg aria-hidden="true" style="position: absolute; width: 0; height: 0; overflow: hidden;" version="1.1" xmlns="http://www.w3.org/2000/svg" xmlns:xlink="http://www.w3.org/1999/xlink">
<defs>
<symbol id="icon-close" viewBox="0 0 32 32">
<path fill="none" stroke="#407bff" style="stroke: var(--color1, #407bff)" stroke-linejoin="round" stroke-linecap="round" stroke-miterlimit="4" stroke-width="2" d="M8 24l16-16M8 8l16 16"></path>
</symbol><symbol id="icon-glass" viewBox="0 0 31 32">
<path fill="#407bff" style="fill: var(--color1, #407bff)" d="M5.415 3.14l1.85 25.65v0.070h15.924l1.85-25.64v-0.080h-19.624zM22.534 28.142h-14.611l-1.387-19.213h0.763l1.254 16.932c0.007 0.089 0.047 0.172 0.112 0.233s0.149 0.095 0.237 0.096h0.030c0.046-0.003 0.091-0.015 0.132-0.036s0.078-0.050 0.108-0.085c0.030-0.035 0.053-0.076 0.068-0.12s0.020-0.091 0.017-0.138l-1.255-16.882h15.919l-1.387 19.213zM23.971 8.21h-16.023l-0.276-3.743c-0.009-0.091-0.051-0.176-0.118-0.237s-0.155-0.094-0.246-0.092c-0.093 0.009-0.178 0.054-0.239 0.126s-0.091 0.164-0.086 0.259l0.276 3.693h-0.772l-0.315-4.362h18.113l-0.315 4.357z"></path>
<path fill="#407bff" style="fill: var(--color1, #407bff)" d="M11.052 12.482c0.23 0 0.454-0.069 0.645-0.198s0.34-0.313 0.428-0.529 0.111-0.452 0.066-0.68c-0.045-0.229-0.155-0.438-0.318-0.603s-0.369-0.277-0.594-0.322c-0.225-0.046-0.459-0.022-0.671 0.067s-0.393 0.24-0.521 0.434c-0.128 0.194-0.196 0.421-0.196 0.654 0 0.312 0.122 0.612 0.34 0.833s0.513 0.345 0.821 0.345zM11.052 10.84c0.090 0 0.179 0.027 0.254 0.078s0.134 0.123 0.168 0.208c0.035 0.085 0.044 0.178 0.026 0.268s-0.061 0.173-0.125 0.238c-0.064 0.065-0.146 0.109-0.234 0.127s-0.181 0.009-0.264-0.026c-0.084-0.035-0.155-0.095-0.205-0.171s-0.077-0.166-0.077-0.258c0-0.123 0.048-0.241 0.134-0.328s0.202-0.136 0.323-0.136z"></path>
<path fill="#407bff" style="fill: var(--color1, #407bff)" d="M11.047 16.309c0.003 0.232 0.074 0.459 0.203 0.651s0.312 0.34 0.525 0.427c0.213 0.087 0.446 0.108 0.67 0.060s0.43-0.161 0.591-0.327c0.161-0.166 0.27-0.376 0.312-0.604s0.018-0.465-0.070-0.679c-0.089-0.214-0.239-0.397-0.43-0.525s-0.416-0.196-0.645-0.195c-0.153 0.001-0.305 0.032-0.446 0.092s-0.269 0.149-0.377 0.26c-0.107 0.111-0.192 0.242-0.249 0.386s-0.086 0.299-0.084 0.454zM12.661 16.309c0 0.092-0.027 0.182-0.077 0.258s-0.122 0.136-0.205 0.171-0.176 0.044-0.264 0.026c-0.089-0.018-0.17-0.062-0.234-0.127s-0.108-0.148-0.125-0.238-0.009-0.183 0.026-0.268c0.035-0.085 0.093-0.157 0.169-0.208s0.164-0.078 0.254-0.078c0.121 0 0.238 0.049 0.323 0.136s0.134 0.205 0.134 0.328z"></path>
<path fill="#407bff" style="fill: var(--color1, #407bff)" d="M19.297 16.339c0.23 0 0.454-0.069 0.645-0.198s0.34-0.313 0.428-0.529 0.111-0.452 0.066-0.68c-0.045-0.228-0.155-0.438-0.318-0.603s-0.369-0.277-0.594-0.322c-0.225-0.045-0.459-0.022-0.671 0.067s-0.393 0.24-0.521 0.434c-0.128 0.194-0.196 0.421-0.196 0.654 0 0.312 0.122 0.612 0.34 0.833s0.513 0.345 0.821 0.345zM19.297 14.703c0.091 0 0.179 0.027 0.255 0.079s0.134 0.124 0.168 0.209c0.034 0.085 0.043 0.179 0.025 0.269s-0.062 0.173-0.127 0.238c-0.064 0.065-0.146 0.108-0.235 0.126s-0.181 0.007-0.265-0.028-0.155-0.096-0.204-0.173c-0.050-0.077-0.076-0.167-0.075-0.259 0.001-0.122 0.050-0.239 0.136-0.325s0.201-0.134 0.322-0.134z"></path>
<path fill="#407bff" style="fill: var(--color1, #407bff)" d="M15.253 14.119c0.23 0 0.454-0.069 0.645-0.198s0.34-0.313 0.428-0.529c0.088-0.215 0.111-0.452 0.066-0.68s-0.155-0.438-0.318-0.603c-0.162-0.165-0.369-0.277-0.595-0.322s-0.459-0.022-0.671 0.067c-0.212 0.089-0.393 0.24-0.521 0.434s-0.196 0.421-0.196 0.654c0 0.312 0.122 0.612 0.34 0.833s0.513 0.345 0.821 0.345zM15.253 12.477c0.091 0 0.179 0.027 0.254 0.078s0.134 0.123 0.169 0.208c0.035 0.085 0.044 0.178 0.026 0.268s-0.061 0.173-0.125 0.238c-0.064 0.065-0.145 0.109-0.234 0.127s-0.181 0.009-0.264-0.026-0.155-0.095-0.205-0.171c-0.050-0.076-0.077-0.166-0.077-0.258-0.003-0.063 0.006-0.126 0.027-0.185s0.055-0.113 0.098-0.159c0.043-0.046 0.094-0.082 0.152-0.107s0.119-0.038 0.181-0.038v0.025z"></path>
<path fill="#407bff" style="fill: var(--color1, #407bff)" d="M13.040 20.796c0.005 0.191 0.065 0.377 0.174 0.534s0.26 0.278 0.435 0.347c0.176 0.070 0.368 0.086 0.552 0.045s0.353-0.135 0.485-0.272c0.132-0.137 0.221-0.311 0.256-0.498s0.015-0.382-0.059-0.559-0.196-0.327-0.353-0.433c-0.157-0.106-0.342-0.162-0.53-0.162-0.257 0.006-0.501 0.114-0.68 0.301s-0.279 0.437-0.279 0.697zM13.999 20.536c0.051 0 0.1 0.015 0.142 0.044s0.075 0.069 0.094 0.116 0.024 0.1 0.015 0.15c-0.010 0.050-0.034 0.097-0.070 0.133s-0.081 0.061-0.131 0.071c-0.050 0.010-0.101 0.005-0.148-0.015s-0.087-0.053-0.115-0.096c-0.028-0.043-0.043-0.093-0.043-0.144 0-0.069 0.027-0.135 0.075-0.183s0.113-0.076 0.181-0.076z"></path>
<path fill="#407bff" style="fill: var(--color1, #407bff)" d="M17.679 19.713c0.197 0.007 0.391-0.046 0.558-0.153s0.298-0.261 0.377-0.444c0.079-0.183 0.102-0.386 0.066-0.583s-0.129-0.378-0.268-0.52c-0.139-0.142-0.316-0.239-0.509-0.277s-0.394-0.017-0.575 0.061c-0.181 0.078-0.335 0.21-0.442 0.378s-0.161 0.365-0.156 0.565c0.006 0.254 0.108 0.497 0.284 0.678s0.414 0.287 0.665 0.295zM17.679 18.48c0.068 0 0.133 0.027 0.181 0.076s0.075 0.115 0.075 0.184-0.027 0.135-0.075 0.184c-0.048 0.049-0.113 0.076-0.181 0.076s-0.134-0.027-0.183-0.076-0.077-0.114-0.078-0.184c0-0.035 0.007-0.069 0.020-0.101s0.032-0.061 0.057-0.085c0.024-0.024 0.053-0.043 0.085-0.056s0.065-0.019 0.099-0.018z"></path>
<path fill="#407bff" style="fill: var(--color1, #407bff)" d="M19.706 11.658c0.195 0 0.385-0.058 0.547-0.168s0.288-0.266 0.362-0.448c0.074-0.182 0.094-0.383 0.056-0.577s-0.132-0.371-0.269-0.511-0.313-0.235-0.504-0.273c-0.191-0.039-0.389-0.019-0.568 0.057s-0.333 0.204-0.442 0.368-0.166 0.357-0.166 0.554c0 0.265 0.104 0.519 0.288 0.706s0.435 0.292 0.696 0.292zM19.706 10.426c0.038-0.011 0.078-0.013 0.117-0.006s0.076 0.024 0.107 0.048c0.032 0.024 0.057 0.056 0.075 0.091s0.027 0.076 0.027 0.116c0 0.040-0.009 0.080-0.027 0.116s-0.043 0.067-0.075 0.091c-0.032 0.024-0.068 0.041-0.107 0.048s-0.079 0.005-0.117-0.006c-0.038 0.011-0.078 0.013-0.117 0.006s-0.076-0.024-0.107-0.048c-0.032-0.024-0.057-0.056-0.075-0.091s-0.027-0.075-0.027-0.116c0-0.040 0.009-0.080 0.027-0.116s0.043-0.067 0.075-0.091c0.032-0.024 0.068-0.041 0.107-0.048s0.079-0.005 0.117 0.006z"></path>
<path fill="#407bff" style="fill: var(--color1, #407bff)" d="M10.088 26.889c-0.044 0.021-0.084 0.050-0.116 0.087s-0.057 0.080-0.072 0.127c-0.015 0.047-0.021 0.096-0.016 0.145s0.019 0.097 0.042 0.14c0.030 0.058 0.075 0.107 0.131 0.142s0.119 0.053 0.184 0.053c0.055 0.001 0.109-0.010 0.158-0.035 1.503-0.781 3.167-1.192 4.855-1.198 1.787 0.026 3.55 0.429 5.175 1.183 0.064 0.034 0.137 0.047 0.209 0.038s0.139-0.041 0.193-0.091c0.054-0.050 0.091-0.115 0.107-0.186s0.010-0.147-0.017-0.215c-0.035-0.088-0.102-0.16-0.187-0.2-1.721-0.799-3.588-1.224-5.48-1.248-1.795 0.002-3.565 0.432-5.165 1.258z"></path>
</symbol>
<symbol id="icon-plus" viewBox="0 0 32 32">
<path fill="#407bff" style="fill: var(--color1, #407bff)" d="M16 11.091c0.145 0 0.283 0.057 0.386 0.16s0.16 0.241 0.16 0.386v3.818h3.818c0.145 0 0.283 0.057 0.386 0.16s0.16 0.241 0.16 0.386-0.057 0.283-0.16 0.386c-0.102 0.102-0.241 0.16-0.386 0.16h-3.818v3.818c0 0.145-0.057 0.283-0.16 0.386s-0.241 0.16-0.386 0.16-0.283-0.057-0.386-0.16c-0.102-0.102-0.16-0.241-0.16-0.386v-3.818h-3.818c-0.145 0-0.283-0.057-0.386-0.16s-0.16-0.241-0.16-0.386 0.057-0.283 0.16-0.386c0.102-0.102 0.241-0.16 0.386-0.16h3.818v-3.818c0-0.145 0.057-0.283 0.16-0.386s0.241-0.16 0.386-0.16z"></path>
</symbol>
<symbol id="icon-minus" viewBox="0 0 32 32">
<path fill="#407bff" style="fill: var(--color1, #407bff)" d="M11.091 16c0-0.145 0.057-0.283 0.16-0.386s0.241-0.16 0.386-0.16h8.727c0.145 0 0.283 0.057 0.386 0.16s0.16 0.241 0.16 0.386-0.057 0.283-0.16 0.386c-0.102 0.102-0.241 0.16-0.386 0.16h-8.727c-0.145 0-0.283-0.057-0.386-0.16s-0.16-0.241-0.16-0.386z"></path>
</symbol>
<symbol id="icon-arrow" viewBox="0 0 32 32">
<path d="M16.706 21.707c-0.187 0.187-0.442 0.293-0.707 0.293s-0.519-0.105-0.707-0.293l-10-10c-0.177-0.19-0.273-0.44-0.268-0.699s0.11-0.506 0.293-0.689c0.183-0.183 0.43-0.288 0.689-0.293s0.51 0.092 0.699 0.268l9.293 9.293 9.293-9.293c0.092-0.098 0.202-0.177 0.325-0.232s0.255-0.084 0.389-0.086c0.134-0.002 0.268 0.022 0.392 0.073s0.238 0.125 0.333 0.22 0.17 0.208 0.22 0.333c0.050 0.125 0.075 0.258 0.073 0.392s-0.032 0.267-0.086 0.389-0.133 0.233-0.232 0.325l-10 10z"></path>
</symbol>
</defs>
</svg>
