<svg aria-hidden="true" style="position: absolute; width: 0; height: 0; overflow: hidden;" version="1.1" xmlns="http://www.w3.org/2000/svg" xmlns:xlink="http://www.w3.org/1999/xlink">
<defs>
<symbol id="icon-close" viewBox="0 0 32 32">
<path fill="none" stroke="#407bff" style="stroke: var(--color1, #407bff)" stroke-linejoin="round" stroke-linecap="round" stroke-miterlimit="4" stroke-width="2" d="M8 24l16-16M8 8l16 16"></path>
</symbol>
<symbol id="icon-plus" viewBox="0 0 32 32">
<path fill="#407bff" style="fill: var(--color1, #407bff)" d="M16 11.091c0.145 0 0.283 0.057 0.386 0.16s0.16 0.241 0.16 0.386v3.818h3.818c0.145 0 0.283 0.057 0.386 0.16s0.16 0.241 0.16 0.386-0.057 0.283-0.16 0.386c-0.102 0.102-0.241 0.16-0.386 0.16h-3.818v3.818c0 0.145-0.057 0.283-0.16 0.386s-0.241 0.16-0.386 0.16-0.283-0.057-0.386-0.16c-0.102-0.102-0.16-0.241-0.16-0.386v-3.818h-3.818c-0.145 0-0.283-0.057-0.386-0.16s-0.16-0.241-0.16-0.386 0.057-0.283 0.16-0.386c0.102-0.102 0.241-0.16 0.386-0.16h3.818v-3.818c0-0.145 0.057-0.283 0.16-0.386s0.241-0.16 0.386-0.16z"></path>
</symbol>
<symbol id="icon-minus" viewBox="0 0 32 32">
<path fill="#407bff" style="fill: var(--color1, #407bff)" d="M11.091 16c0-0.145 0.057-0.283 0.16-0.386s0.241-0.16 0.386-0.16h8.727c0.145 0 0.283 0.057 0.386 0.16s0.16 0.241 0.16 0.386-0.057 0.283-0.16 0.386c-0.102 0.102-0.241 0.16-0.386 0.16h-8.727c-0.145 0-0.283-0.057-0.386-0.16s-0.16-0.241-0.16-0.386z"></path>
</symbol>
<symbol id="icon-arrow" viewBox="0 0 32 32">
<path d="M16.706 21.707c-0.187 0.187-0.442 0.293-0.707 0.293s-0.519-0.105-0.707-0.293l-10-10c-0.177-0.19-0.273-0.44-0.268-0.699s0.11-0.506 0.293-0.689c0.183-0.183 0.43-0.288 0.689-0.293s0.51 0.092 0.699 0.268l9.293 9.293 9.293-9.293c0.092-0.098 0.202-0.177 0.325-0.232s0.255-0.084 0.389-0.086c0.134-0.002 0.268 0.022 0.392 0.073s0.238 0.125 0.333 0.22 0.17 0.208 0.22 0.333c0.050 0.125 0.075 0.258 0.073 0.392s-0.032 0.267-0.086 0.389-0.133 0.233-0.232 0.325l-10 10z"></path>
</symbol>
</defs>
</svg>
